solid clamp_porous
facet normal 0.000000 0.000000 1.000000
outer loop
vertex 0.045332 0.090664 3.000000
vertex 0.000000 0.000000 3.000000
vertex 8.000000 0.000000 3.000000
endloop
endfacet
facet normal 0.000000 0.000000 1.000000
outer loop
vertex 8.000000 0.000000 3.000000
vertex 7.954668 0.090664 3.000000
vertex 7.941380 0.111663 3.000000
endloop
endfacet
facet normal 0.000000 0.000000 1.000000
outer loop
vertex 7.941380 0.111663 3.000000
vertex 7.921151 0.135935 3.000000
vertex 7.895962 0.161103 3.000000
endloop
endfacet
facet normal 0.000000 0.000000 1.000000
outer loop
vertex 7.895962 0.161103 3.000000
vertex 7.868278 0.184703 3.000000
vertex 7.840809 0.204425 3.000000
endloop
endfacet
facet normal 0.000011 0.000000 1.000000
outer loop
vertex 7.840809 0.204425 3.000000
vertex 4.781207 2.182300 3.000000
vertex 4.655409 2.249573 3.000000
endloop
endfacet
facet normal 0.000000 0.000000 1.000000
outer loop
vertex 4.655409 2.249573 3.000000
vertex 4.498458 2.310261 3.000000
vertex 4.325719 2.358423 3.000000
endloop
endfacet
facet normal 0.000000 0.000000 1.000000
outer loop
vertex 4.325719 2.358423 3.000000
vertex 4.154099 2.389345 3.000000
vertex 4.000400 2.400000 3.000000
endloop
endfacet
facet normal 0.000000 0.000000 1.000000
outer loop
vertex 4.000000 2.400000 3.000000
vertex 3.999600 2.400000 3.000000
vertex 3.845900 2.389345 3.000000
endloop
endfacet
facet normal 0.000000 0.000000 1.000000
outer loop
vertex 4.325719 2.358423 3.000000
vertex 4.000400 2.400000 3.000000
vertex 4.000000 2.400000 3.000000
endloop
endfacet
facet normal 0.000000 0.000000 1.000000
outer loop
vertex 7.840809 0.204425 3.000000
vertex 4.655409 2.249573 3.000000
vertex 4.325719 2.358423 3.000000
endloop
endfacet
facet normal 0.000000 0.000000 1.000000
outer loop
vertex 7.941380 0.111663 3.000000
vertex 7.895962 0.161103 3.000000
vertex 7.840809 0.204425 3.000000
endloop
endfacet
facet normal 0.000000 0.000000 1.000000
outer loop
vertex 0.045332 0.090664 3.000000
vertex 8.000000 0.000000 3.000000
vertex 7.941380 0.111663 3.000000
endloop
endfacet
facet normal 0.000000 0.000000 1.000000
outer loop
vertex 0.078849 0.135935 3.000000
vertex 0.058620 0.111664 3.000000
vertex 0.045332 0.090664 3.000000
endloop
endfacet
facet normal 0.000000 0.000000 1.000000
outer loop
vertex 0.131722 0.184703 3.000000
vertex 0.104038 0.161103 3.000000
vertex 0.078849 0.135935 3.000000
endloop
endfacet
facet normal 0.000040 0.000000 1.000000
outer loop
vertex 3.218793 2.182300 3.000000
vertex 0.159191 0.204425 3.000000
vertex 0.131722 0.184703 3.000000
endloop
endfacet
facet normal 0.000000 0.000000 1.000000
outer loop
vertex 3.501542 2.310261 3.000000
vertex 3.344591 2.249573 3.000000
vertex 3.218793 2.182300 3.000000
endloop
endfacet
facet normal 0.000000 0.000000 1.000000
outer loop
vertex 3.845900 2.389345 3.000000
vertex 3.674281 2.358423 3.000000
vertex 3.501542 2.310261 3.000000
endloop
endfacet
facet normal 0.000000 0.000000 1.000000
outer loop
vertex 4.325719 2.358423 3.000000
vertex 4.000000 2.400000 3.000000
vertex 3.845900 2.389345 3.000000
endloop
endfacet
facet normal 0.000000 0.000000 1.000000
outer loop
vertex 7.941380 0.111663 3.000000
vertex 7.840809 0.204425 3.000000
vertex 4.325719 2.358423 3.000000
endloop
endfacet
facet normal 0.000000 0.000000 1.000000
outer loop
vertex 0.078849 0.135935 3.000000
vertex 0.045332 0.090664 3.000000
vertex 7.941380 0.111663 3.000000
endloop
endfacet
facet normal -0.000021 0.000000 1.000000
outer loop
vertex 3.218793 2.182300 3.000000
vertex 0.131722 0.184703 3.000000
vertex 0.078849 0.135935 3.000000
endloop
endfacet
facet normal 0.000000 0.000000 1.000000
outer loop
vertex 3.845900 2.389345 3.000000
vertex 3.501542 2.310261 3.000000
vertex 3.218793 2.182300 3.000000
endloop
endfacet
facet normal 0.000000 0.000000 1.000000
outer loop
vertex 7.941380 0.111663 3.000000
vertex 4.325719 2.358423 3.000000
vertex 3.845900 2.389345 3.000000
endloop
endfacet
facet normal 0.000000 0.000000 1.000000
outer loop
vertex 3.218793 2.182300 3.000000
vertex 0.078849 0.135935 3.000000
vertex 7.941380 0.111663 3.000000
endloop
endfacet
facet normal -0.000001 0.000000 1.000000
outer loop
vertex 7.941380 0.111663 3.000000
vertex 3.845900 2.389345 3.000000
vertex 3.218793 2.182300 3.000000
endloop
endfacet
facet normal 0.000000 0.000000 -1.000000
outer loop
vertex 8.000000 0.000000 0.000000
vertex 0.000000 0.000000 0.000000
vertex 0.045332 0.090664 0.000000
endloop
endfacet
facet normal 0.000000 0.000000 -1.000000
outer loop
vertex 0.045332 0.090664 0.000000
vertex 0.058620 0.111664 0.000000
vertex 0.078849 0.135935 0.000000
endloop
endfacet
facet normal 0.000000 0.000000 -1.000000
outer loop
vertex 0.078849 0.135935 0.000000
vertex 0.104038 0.161103 0.000000
vertex 0.131722 0.184703 0.000000
endloop
endfacet
facet normal 0.000000 0.000000 -1.000000
outer loop
vertex 0.131722 0.184703 0.000000
vertex 0.159191 0.204425 0.000000
vertex 3.218793 2.182300 0.000000
endloop
endfacet
facet normal 0.000000 0.000000 -1.000000
outer loop
vertex 3.218793 2.182300 0.000000
vertex 3.344591 2.249573 0.000000
vertex 3.501542 2.310261 0.000000
endloop
endfacet
facet normal 0.000000 0.000000 -1.000000
outer loop
vertex 3.501542 2.310261 0.000000
vertex 3.674281 2.358423 0.000000
vertex 3.845900 2.389345 0.000000
endloop
endfacet
facet normal 0.000000 0.000000 -1.000000
outer loop
vertex 3.845900 2.389345 0.000000
vertex 3.999600 2.400000 0.000000
vertex 4.000000 2.400000 0.000000
endloop
endfacet
facet normal 0.000000 0.000000 -1.000000
outer loop
vertex 4.000000 2.400000 0.000000
vertex 4.000400 2.400000 0.000000
vertex 4.154099 2.389345 0.000000
endloop
endfacet
facet normal 0.000000 0.000000 -1.000000
outer loop
vertex 4.154099 2.389345 0.000000
vertex 4.325719 2.358423 0.000000
vertex 4.498458 2.310261 0.000000
endloop
endfacet
facet normal 0.000000 0.000000 -1.000000
outer loop
vertex 4.498458 2.310261 0.000000
vertex 4.655409 2.249573 0.000000
vertex 4.781207 2.182300 0.000000
endloop
endfacet
facet normal 0.000000 0.000000 -1.000000
outer loop
vertex 4.781207 2.182300 0.000000
vertex 7.840809 0.204425 0.000000
vertex 7.868278 0.184703 0.000000
endloop
endfacet
facet normal 0.000000 0.000000 -1.000000
outer loop
vertex 7.868278 0.184703 0.000000
vertex 7.895962 0.161103 0.000000
vertex 7.921151 0.135935 0.000000
endloop
endfacet
facet normal 0.000000 0.000000 -1.000000
outer loop
vertex 7.921151 0.135935 0.000000
vertex 7.941380 0.111663 0.000000
vertex 7.954668 0.090664 0.000000
endloop
endfacet
facet normal 0.000000 0.000000 -1.000000
outer loop
vertex 7.954668 0.090664 0.000000
vertex 8.000000 0.000000 0.000000
vertex 0.045332 0.090664 0.000000
endloop
endfacet
facet normal 0.000000 0.000000 -1.000000
outer loop
vertex 0.045332 0.090664 0.000000
vertex 0.078849 0.135935 0.000000
vertex 0.131722 0.184703 0.000000
endloop
endfacet
facet normal 0.000000 0.000000 -1.000000
outer loop
vertex 0.131722 0.184703 0.000000
vertex 3.218793 2.182300 0.000000
vertex 3.501542 2.310261 0.000000
endloop
endfacet
facet normal 0.000000 0.000000 -1.000000
outer loop
vertex 3.501542 2.310261 0.000000
vertex 3.845900 2.389345 0.000000
vertex 4.000000 2.400000 0.000000
endloop
endfacet
facet normal 0.000000 0.000000 -1.000000
outer loop
vertex 4.000000 2.400000 0.000000
vertex 4.154099 2.389345 0.000000
vertex 4.498458 2.310261 0.000000
endloop
endfacet
facet normal 0.000000 0.000000 -1.000000
outer loop
vertex 4.498458 2.310261 0.000000
vertex 4.781207 2.182300 0.000000
vertex 7.868278 0.184703 0.000000
endloop
endfacet
facet normal 0.000000 0.000000 -1.000000
outer loop
vertex 7.868278 0.184703 0.000000
vertex 7.921151 0.135935 0.000000
vertex 7.954668 0.090664 0.000000
endloop
endfacet
facet normal 0.000000 0.000000 -1.000000
outer loop
vertex 7.954668 0.090664 0.000000
vertex 0.045332 0.090664 0.000000
vertex 0.131722 0.184703 0.000000
endloop
endfacet
facet normal 0.000000 0.000000 -1.000000
outer loop
vertex 0.131722 0.184703 0.000000
vertex 3.501542 2.310261 0.000000
vertex 4.000000 2.400000 0.000000
endloop
endfacet
facet normal 0.000000 0.000000 -1.000000
outer loop
vertex 4.000000 2.400000 0.000000
vertex 4.498458 2.310261 0.000000
vertex 7.868278 0.184703 0.000000
endloop
endfacet
facet normal 0.000000 0.000000 -1.000000
outer loop
vertex 7.868278 0.184703 0.000000
vertex 7.954668 0.090664 0.000000
vertex 0.131722 0.184703 0.000000
endloop
endfacet
facet normal 0.000000 0.000000 -1.000000
outer loop
vertex 0.131722 0.184703 0.000000
vertex 4.000000 2.400000 0.000000
vertex 7.868278 0.184703 0.000000
endloop
endfacet
facet normal 0.583235 0.812303 0.000000
outer loop
vertex 7.868278 0.184703 0.000000
vertex 7.840809 0.204425 0.000000
vertex 7.840809 0.204425 3.000000
endloop
endfacet
facet normal 0.583253 0.812290 0.000000
outer loop
vertex 7.868278 0.184703 0.000000
vertex 7.840809 0.204425 3.000000
vertex 7.868278 0.184703 3.000000
endloop
endfacet
facet normal 0.000000 1.000000 0.000000
outer loop
vertex 4.000000 2.400000 0.000000
vertex 3.999600 2.400000 0.000000
vertex 3.999600 2.400000 3.000000
endloop
endfacet
facet normal 0.000000 1.000000 0.000000
outer loop
vertex 4.000000 2.400000 0.000000
vertex 3.999600 2.400000 3.000000
vertex 4.000000 2.400000 3.000000
endloop
endfacet
facet normal 0.000000 -1.000000 0.000000
outer loop
vertex 0.000000 0.000000 0.000000
vertex 8.000000 0.000000 0.000000
vertex 8.000000 0.000000 3.000000
endloop
endfacet
facet normal 0.000000 -1.000000 0.000000
outer loop
vertex 0.000000 0.000000 0.000000
vertex 8.000000 0.000000 3.000000
vertex 0.000000 0.000000 3.000000
endloop
endfacet
facet normal 0.542890 0.839804 0.000000
outer loop
vertex 7.840809 0.204425 0.000000
vertex 4.781207 2.182300 0.000000
vertex 4.781207 2.182300 3.000000
endloop
endfacet
facet normal 0.542890 0.839804 0.000000
outer loop
vertex 7.840809 0.204425 0.000000
vertex 4.781207 2.182300 3.000000
vertex 7.840809 0.204425 3.000000
endloop
endfacet
facet normal -0.894427 0.447214 0.000000
outer loop
vertex 0.045332 0.090664 0.000000
vertex 0.000000 0.000000 0.000000
vertex 0.000000 0.000000 3.000000
endloop
endfacet
facet normal -0.894427 0.447214 0.000000
outer loop
vertex 0.045332 0.090664 0.000000
vertex 0.000000 0.000000 3.000000
vertex 0.045332 0.090664 3.000000
endloop
endfacet
facet normal -0.069157 0.997606 0.000000
outer loop
vertex 3.999600 2.400000 0.000000
vertex 3.845900 2.389345 0.000000
vertex 3.845900 2.389345 3.000000
endloop
endfacet
facet normal -0.069157 0.997606 0.000000
outer loop
vertex 3.999600 2.400000 0.000000
vertex 3.845900 2.389345 3.000000
vertex 3.999600 2.400000 3.000000
endloop
endfacet
facet normal 0.471572 0.881828 0.000000
outer loop
vertex 4.781207 2.182300 0.000000
vertex 4.655409 2.249573 0.000000
vertex 4.655409 2.249573 3.000000
endloop
endfacet
facet normal 0.471574 0.881826 0.000000
outer loop
vertex 4.781207 2.182300 0.000000
vertex 4.655409 2.249573 3.000000
vertex 4.781207 2.182300 3.000000
endloop
endfacet
facet normal -0.177323 0.984153 0.000000
outer loop
vertex 3.845900 2.389345 0.000000
vertex 3.674281 2.358423 0.000000
vertex 3.674281 2.358423 3.000000
endloop
endfacet
facet normal -0.177323 0.984153 0.000000
outer loop
vertex 3.845900 2.389345 0.000000
vertex 3.674281 2.358423 3.000000
vertex 3.845900 2.389345 3.000000
endloop
endfacet
facet normal 0.894424 0.447219 0.000000
outer loop
vertex 8.000000 0.000000 0.000000
vertex 7.954668 0.090664 0.000000
vertex 7.954668 0.090664 3.000000
endloop
endfacet
facet normal 0.894430 0.447209 0.000000
outer loop
vertex 8.000000 0.000000 0.000000
vertex 7.954668 0.090664 3.000000
vertex 8.000000 0.000000 3.000000
endloop
endfacet
facet normal 0.360645 0.932703 0.000000
outer loop
vertex 4.655409 2.249573 0.000000
vertex 4.498458 2.310261 0.000000
vertex 4.498458 2.310261 3.000000
endloop
endfacet
facet normal 0.360646 0.932703 0.000000
outer loop
vertex 4.655409 2.249573 0.000000
vertex 4.498458 2.310261 3.000000
vertex 4.655409 2.249573 3.000000
endloop
endfacet
facet normal -0.268571 0.963260 0.000000
outer loop
vertex 3.674281 2.358423 0.000000
vertex 3.501542 2.310261 0.000000
vertex 3.501542 2.310261 3.000000
endloop
endfacet
facet normal -0.268570 0.963260 0.000000
outer loop
vertex 3.674281 2.358423 0.000000
vertex 3.501542 2.310261 3.000000
vertex 3.674281 2.358423 3.000000
endloop
endfacet
facet normal 0.845036 0.534709 0.000000
outer loop
vertex 7.954668 0.090664 0.000000
vertex 7.941380 0.111663 0.000000
vertex 7.941380 0.111663 3.000000
endloop
endfacet
facet normal 0.845013 0.534746 0.000000
outer loop
vertex 7.954668 0.090664 0.000000
vertex 7.941380 0.111663 3.000000
vertex 7.954668 0.090664 3.000000
endloop
endfacet
facet normal 0.268571 0.963260 0.000000
outer loop
vertex 4.498458 2.310261 0.000000
vertex 4.325719 2.358423 0.000000
vertex 4.325719 2.358423 3.000000
endloop
endfacet
facet normal 0.268571 0.963260 0.000000
outer loop
vertex 4.498458 2.310261 0.000000
vertex 4.325719 2.358423 3.000000
vertex 4.498458 2.310261 3.000000
endloop
endfacet
facet normal -0.360647 0.932702 0.000000
outer loop
vertex 3.501542 2.310261 0.000000
vertex 3.344591 2.249573 0.000000
vertex 3.344591 2.249573 3.000000
endloop
endfacet
facet normal -0.360645 0.932703 0.000000
outer loop
vertex 3.501542 2.310261 0.000000
vertex 3.344591 2.249573 3.000000
vertex 3.501542 2.310261 3.000000
endloop
endfacet
facet normal 0.768193 0.640219 0.000000
outer loop
vertex 7.941380 0.111663 0.000000
vertex 7.921151 0.135935 0.000000
vertex 7.921151 0.135935 3.000000
endloop
endfacet
facet normal 0.768173 0.640242 0.000000
outer loop
vertex 7.941380 0.111663 0.000000
vertex 7.921151 0.135935 3.000000
vertex 7.941380 0.111663 3.000000
endloop
endfacet
facet normal 0.177322 0.984153 0.000000
outer loop
vertex 4.325719 2.358423 0.000000
vertex 4.154099 2.389345 0.000000
vertex 4.154099 2.389345 3.000000
endloop
endfacet
facet normal 0.177322 0.984153 0.000000
outer loop
vertex 4.325719 2.358423 0.000000
vertex 4.154099 2.389345 3.000000
vertex 4.325719 2.358423 3.000000
endloop
endfacet
facet normal -0.471574 0.881826 0.000000
outer loop
vertex 3.344591 2.249573 0.000000
vertex 3.218793 2.182300 0.000000
vertex 3.218793 2.182300 3.000000
endloop
endfacet
facet normal -0.471570 0.881828 0.000000
outer loop
vertex 3.344591 2.249573 0.000000
vertex 3.218793 2.182300 3.000000
vertex 3.344591 2.249573 3.000000
endloop
endfacet
facet normal 0.706814 0.707400 0.000000
outer loop
vertex 7.921151 0.135935 0.000000
vertex 7.895962 0.161103 0.000000
vertex 7.895962 0.161103 3.000000
endloop
endfacet
facet normal 0.706796 0.707417 0.000000
outer loop
vertex 7.921151 0.135935 0.000000
vertex 7.895962 0.161103 3.000000
vertex 7.921151 0.135935 3.000000
endloop
endfacet
facet normal 0.069157 0.997606 0.000000
outer loop
vertex 4.154099 2.389345 0.000000
vertex 4.000400 2.400000 0.000000
vertex 4.000400 2.400000 3.000000
endloop
endfacet
facet normal 0.069157 0.997606 0.000000
outer loop
vertex 4.154099 2.389345 0.000000
vertex 4.000400 2.400000 3.000000
vertex 4.154099 2.389345 3.000000
endloop
endfacet
facet normal 0.648737 0.761013 0.000000
outer loop
vertex 7.895962 0.161103 0.000000
vertex 7.868278 0.184703 0.000000
vertex 7.868278 0.184703 3.000000
endloop
endfacet
facet normal 0.648737 0.761013 0.000000
outer loop
vertex 7.895962 0.161103 0.000000
vertex 7.868278 0.184703 3.000000
vertex 7.895962 0.161103 3.000000
endloop
endfacet
facet normal 0.000000 1.000000 0.000000
outer loop
vertex 4.000400 2.400000 0.000000
vertex 4.000000 2.400000 0.000000
vertex 4.000000 2.400000 3.000000
endloop
endfacet
facet normal 0.000000 1.000000 0.000000
outer loop
vertex 4.000400 2.400000 0.000000
vertex 4.000000 2.400000 3.000000
vertex 4.000400 2.400000 3.000000
endloop
endfacet
facet normal 0.000000 -0.995185 0.098016
outer loop
vertex 5.500000 0.298079 1.480491
vertex 5.500000 0.300000 1.500000
vertex 0.307037 0.300000 1.500000
endloop
endfacet
facet normal 0.000000 -0.995185 0.098019
outer loop
vertex 5.500000 0.298079 1.480491
vertex 0.307037 0.300000 1.500000
vertex 0.304065 0.298079 1.480491
endloop
endfacet
facet normal 0.000000 -0.956940 0.290286
outer loop
vertex 5.500000 0.292388 1.461732
vertex 5.500000 0.298079 1.480491
vertex 0.304065 0.298079 1.480491
endloop
endfacet
facet normal 0.000000 -0.956941 0.290282
outer loop
vertex 5.500000 0.292388 1.461732
vertex 0.304065 0.298079 1.480491
vertex 0.295262 0.292388 1.461732
endloop
endfacet
facet normal 0.000000 -0.881922 0.471394
outer loop
vertex 5.500000 0.283147 1.444443
vertex 5.500000 0.292388 1.461732
vertex 0.295262 0.292388 1.461732
endloop
endfacet
facet normal 0.000000 -0.881922 0.471395
outer loop
vertex 5.500000 0.283147 1.444443
vertex 0.295262 0.292388 1.461732
vertex 0.280967 0.283147 1.444443
endloop
endfacet
facet normal 0.000000 -0.773009 0.634395
outer loop
vertex 5.500000 0.270711 1.429289
vertex 5.500000 0.283147 1.444443
vertex 0.280967 0.283147 1.444443
endloop
endfacet
facet normal 0.000000 -0.773010 0.634394
outer loop
vertex 5.500000 0.270711 1.429289
vertex 0.280967 0.283147 1.444443
vertex 0.261729 0.270711 1.429289
endloop
endfacet
facet normal 0.000000 -0.634391 0.773012
outer loop
vertex 5.500000 0.255557 1.416853
vertex 5.500000 0.270711 1.429289
vertex 0.261729 0.270711 1.429289
endloop
endfacet
facet normal 0.000000 -0.634392 0.773011
outer loop
vertex 5.500000 0.255557 1.416853
vertex 0.261729 0.270711 1.429289
vertex 0.238287 0.255557 1.416853
endloop
endfacet
facet normal 0.000000 -0.471398 0.881921
outer loop
vertex 5.500000 0.238268 1.407612
vertex 5.500000 0.255557 1.416853
vertex 0.238287 0.255557 1.416853
endloop
endfacet
facet normal 0.000000 -0.471397 0.881921
outer loop
vertex 5.500000 0.238268 1.407612
vertex 0.238287 0.255557 1.416853
vertex 0.211543 0.238268 1.407612
endloop
endfacet
facet normal 0.000000 -0.290285 0.956940
outer loop
vertex 5.500000 0.219509 1.401922
vertex 5.500000 0.238268 1.407612
vertex 0.211543 0.238268 1.407612
endloop
endfacet
facet normal 0.000000 -0.290284 0.956940
outer loop
vertex 5.500000 0.219509 1.401922
vertex 0.211543 0.238268 1.407612
vertex 0.182524 0.219509 1.401922
endloop
endfacet
facet normal 0.000000 -0.098020 0.995184
outer loop
vertex 0.153028 0.200000 1.400000
vertex 5.500000 0.200000 1.400000
vertex 5.500000 0.219509 1.401922
endloop
endfacet
facet normal 0.000000 -0.098021 0.995184
outer loop
vertex 5.500000 0.219509 1.401922
vertex 0.182524 0.219509 1.401922
vertex 0.159191 0.204425 1.400436
endloop
endfacet
facet normal -0.000000 -0.098017 0.995185
outer loop
vertex 5.500000 0.219509 1.401922
vertex 0.159191 0.204425 1.400436
vertex 0.153028 0.200000 1.400000
endloop
endfacet
facet normal 0.000131 0.098044 0.995182
outer loop
vertex 0.153028 0.200000 1.400000
vertex 0.131722 0.184703 1.401507
vertex 0.126782 0.180491 1.401922
endloop
endfacet
facet normal 0.000000 0.098020 0.995184
outer loop
vertex 0.126782 0.180491 1.401922
vertex 5.500000 0.180491 1.401922
vertex 5.500000 0.200000 1.400000
endloop
endfacet
facet normal 0.000000 0.098020 0.995184
outer loop
vertex 0.126782 0.180491 1.401922
vertex 5.500000 0.200000 1.400000
vertex 0.153028 0.200000 1.400000
endloop
endfacet
facet normal 0.000000 0.290286 0.956940
outer loop
vertex 5.500000 0.161732 1.407612
vertex 5.500000 0.180491 1.401922
vertex 0.126782 0.180491 1.401922
endloop
endfacet
facet normal 0.000000 0.290285 0.956940
outer loop
vertex 5.500000 0.161732 1.407612
vertex 0.126782 0.180491 1.401922
vertex 0.104776 0.161732 1.407612
endloop
endfacet
facet normal 0.000000 0.471399 0.881920
outer loop
vertex 0.104038 0.161103 1.407948
vertex 0.087364 0.144443 1.416853
vertex 5.500000 0.144443 1.416853
endloop
endfacet
facet normal 0.000000 0.471396 0.881922
outer loop
vertex 5.500000 0.144443 1.416853
vertex 5.500000 0.161732 1.407612
vertex 0.104776 0.161732 1.407612
endloop
endfacet
facet normal -0.000001 0.471333 0.881955
outer loop
vertex 5.500000 0.144443 1.416853
vertex 0.104776 0.161732 1.407612
vertex 0.104038 0.161103 1.407948
endloop
endfacet
facet normal 0.000000 0.634394 0.773010
outer loop
vertex 0.078849 0.135935 1.423835
vertex 0.073310 0.129289 1.429289
vertex 5.500000 0.129289 1.429289
endloop
endfacet
facet normal 0.000000 0.634393 0.773011
outer loop
vertex 5.500000 0.129289 1.429289
vertex 5.500000 0.144443 1.416853
vertex 0.087364 0.144443 1.416853
endloop
endfacet
facet normal 0.000000 0.634392 0.773011
outer loop
vertex 5.500000 0.129289 1.429289
vertex 0.087364 0.144443 1.416853
vertex 0.078849 0.135935 1.423835
endloop
endfacet
facet normal 0.000000 0.773008 0.634397
outer loop
vertex 0.062946 0.116853 1.444443
vertex 5.500000 0.116853 1.444443
vertex 5.500000 0.129289 1.429289
endloop
endfacet
facet normal 0.000000 0.773008 0.634396
outer loop
vertex 0.062946 0.116853 1.444443
vertex 5.500000 0.129289 1.429289
vertex 0.073310 0.129289 1.429289
endloop
endfacet
facet normal 0.000000 0.881923 0.471393
outer loop
vertex 0.058620 0.111664 1.454152
vertex 0.056057 0.107612 1.461732
vertex 5.500000 0.107612 1.461732
endloop
endfacet
facet normal 0.000000 0.881924 0.471392
outer loop
vertex 5.500000 0.107612 1.461732
vertex 5.500000 0.116853 1.444443
vertex 0.062946 0.116853 1.444443
endloop
endfacet
facet normal 0.000000 0.881924 0.471392
outer loop
vertex 5.500000 0.107612 1.461732
vertex 0.062946 0.116853 1.444443
vertex 0.058620 0.111664 1.454152
endloop
endfacet
facet normal 0.000000 0.956941 0.290283
outer loop
vertex 0.052456 0.101922 1.480491
vertex 5.500000 0.101922 1.480491
vertex 5.500000 0.107612 1.461732
endloop
endfacet
facet normal 0.000000 0.956940 0.290285
outer loop
vertex 0.052456 0.101922 1.480491
vertex 5.500000 0.107612 1.461732
vertex 0.056057 0.107612 1.461732
endloop
endfacet
facet normal 0.000000 0.995184 0.098020
outer loop
vertex 0.051240 0.100000 1.500000
vertex 5.500000 0.100000 1.500000
vertex 5.500000 0.101922 1.480491
endloop
endfacet
facet normal 0.000000 0.995184 0.098022
outer loop
vertex 0.051240 0.100000 1.500000
vertex 5.500000 0.101922 1.480491
vertex 0.052456 0.101922 1.480491
endloop
endfacet
facet normal 0.000000 0.995184 -0.098019
outer loop
vertex 5.500000 0.101922 1.519509
vertex 5.500000 0.100000 1.500000
vertex 0.051240 0.100000 1.500000
endloop
endfacet
facet normal 0.000000 0.995184 -0.098021
outer loop
vertex 5.500000 0.101922 1.519509
vertex 0.051240 0.100000 1.500000
vertex 0.052456 0.101922 1.519509
endloop
endfacet
facet normal 0.000000 0.956940 -0.290285
outer loop
vertex 5.500000 0.107612 1.538268
vertex 5.500000 0.101922 1.519509
vertex 0.052456 0.101922 1.519509
endloop
endfacet
facet normal 0.000000 0.956940 -0.290286
outer loop
vertex 5.500000 0.107612 1.538268
vertex 0.052456 0.101922 1.519509
vertex 0.056057 0.107612 1.538268
endloop
endfacet
facet normal 0.000000 0.881920 -0.471399
outer loop
vertex 0.058620 0.111664 1.545848
vertex 0.062946 0.116853 1.555557
vertex 5.500000 0.116853 1.555557
endloop
endfacet
facet normal 0.000000 0.881922 -0.471396
outer loop
vertex 5.500000 0.116853 1.555557
vertex 5.500000 0.107612 1.538268
vertex 0.056057 0.107612 1.538268
endloop
endfacet
facet normal 0.000000 0.881923 -0.471394
outer loop
vertex 5.500000 0.116853 1.555557
vertex 0.056057 0.107612 1.538268
vertex 0.058620 0.111664 1.545848
endloop
endfacet
facet normal 0.000000 0.773013 -0.634390
outer loop
vertex 0.073311 0.129289 1.570711
vertex 5.500000 0.129289 1.570711
vertex 5.500000 0.116853 1.555557
endloop
endfacet
facet normal 0.000000 0.773013 -0.634390
outer loop
vertex 0.073311 0.129289 1.570711
vertex 5.500000 0.116853 1.555557
vertex 0.062946 0.116853 1.555557
endloop
endfacet
facet normal 0.000000 0.634392 -0.773011
outer loop
vertex 0.078849 0.135935 1.576165
vertex 0.087364 0.144443 1.583147
vertex 5.500000 0.144443 1.583147
endloop
endfacet
facet normal 0.000000 0.634393 -0.773011
outer loop
vertex 5.500000 0.144443 1.583147
vertex 5.500000 0.129289 1.570711
vertex 0.073311 0.129289 1.570711
endloop
endfacet
facet normal 0.000000 0.634393 -0.773011
outer loop
vertex 5.500000 0.144443 1.583147
vertex 0.073311 0.129289 1.570711
vertex 0.078849 0.135935 1.576165
endloop
endfacet
facet normal 0.001480 0.471103 -0.882077
outer loop
vertex 0.087364 0.144443 1.583147
vertex 0.104038 0.161103 1.592052
vertex 0.104776 0.161732 1.592388
endloop
endfacet
facet normal 0.000000 0.471396 -0.881922
outer loop
vertex 0.104776 0.161732 1.592388
vertex 5.500000 0.161732 1.592388
vertex 5.500000 0.144443 1.583147
endloop
endfacet
facet normal 0.000000 0.471397 -0.881921
outer loop
vertex 0.104776 0.161732 1.592388
vertex 5.500000 0.144443 1.583147
vertex 0.087364 0.144443 1.583147
endloop
endfacet
facet normal 0.000000 0.290278 -0.956942
outer loop
vertex 0.126782 0.180491 1.598078
vertex 5.500000 0.180491 1.598078
vertex 5.500000 0.161732 1.592388
endloop
endfacet
facet normal 0.000000 0.290278 -0.956942
outer loop
vertex 0.126782 0.180491 1.598078
vertex 5.500000 0.161732 1.592388
vertex 0.104776 0.161732 1.592388
endloop
endfacet
facet normal 0.000000 0.098019 -0.995185
outer loop
vertex 0.131722 0.184703 1.598493
vertex 0.153028 0.200000 1.600000
vertex 5.500000 0.200000 1.600000
endloop
endfacet
facet normal 0.000000 0.098020 -0.995184
outer loop
vertex 5.500000 0.200000 1.600000
vertex 5.500000 0.180491 1.598078
vertex 0.126782 0.180491 1.598078
endloop
endfacet
facet normal -0.000000 0.098027 -0.995184
outer loop
vertex 5.500000 0.200000 1.600000
vertex 0.126782 0.180491 1.598078
vertex 0.131722 0.184703 1.598493
endloop
endfacet
facet normal 0.000000 -0.098021 -0.995184
outer loop
vertex 0.159191 0.204425 1.599564
vertex 0.182524 0.219509 1.598078
vertex 5.500000 0.219509 1.598078
endloop
endfacet
facet normal 0.000000 -0.098020 -0.995184
outer loop
vertex 5.500000 0.219509 1.598078
vertex 5.500000 0.200000 1.600000
vertex 0.153028 0.200000 1.600000
endloop
endfacet
facet normal -0.000000 -0.098019 -0.995185
outer loop
vertex 5.500000 0.219509 1.598078
vertex 0.153028 0.200000 1.600000
vertex 0.159191 0.204425 1.599564
endloop
endfacet
facet normal 0.000000 -0.290284 -0.956941
outer loop
vertex 0.211544 0.238268 1.592388
vertex 5.500000 0.238268 1.592388
vertex 5.500000 0.219509 1.598078
endloop
endfacet
facet normal 0.000000 -0.290283 -0.956941
outer loop
vertex 0.211544 0.238268 1.592388
vertex 5.500000 0.219509 1.598078
vertex 0.182524 0.219509 1.598078
endloop
endfacet
facet normal 0.000000 -0.471396 -0.881922
outer loop
vertex 0.238287 0.255557 1.583147
vertex 5.500000 0.255557 1.583147
vertex 5.500000 0.238268 1.592388
endloop
endfacet
facet normal 0.000000 -0.471397 -0.881921
outer loop
vertex 0.238287 0.255557 1.583147
vertex 5.500000 0.238268 1.592388
vertex 0.211544 0.238268 1.592388
endloop
endfacet
facet normal 0.000000 -0.634398 -0.773006
outer loop
vertex 0.261729 0.270711 1.570711
vertex 5.500000 0.270711 1.570711
vertex 5.500000 0.255557 1.583147
endloop
endfacet
facet normal 0.000000 -0.634399 -0.773006
outer loop
vertex 0.261729 0.270711 1.570711
vertex 5.500000 0.255557 1.583147
vertex 0.238287 0.255557 1.583147
endloop
endfacet
facet normal 0.000000 -0.773009 -0.634395
outer loop
vertex 0.280967 0.283147 1.555557
vertex 5.500000 0.283147 1.555557
vertex 5.500000 0.270711 1.570711
endloop
endfacet
facet normal 0.000000 -0.773008 -0.634396
outer loop
vertex 0.280967 0.283147 1.555557
vertex 5.500000 0.270711 1.570711
vertex 0.261729 0.270711 1.570711
endloop
endfacet
facet normal 0.000000 -0.881922 -0.471394
outer loop
vertex 0.295262 0.292388 1.538268
vertex 5.500000 0.292388 1.538268
vertex 5.500000 0.283147 1.555557
endloop
endfacet
facet normal 0.000000 -0.881923 -0.471394
outer loop
vertex 0.295262 0.292388 1.538268
vertex 5.500000 0.283147 1.555557
vertex 0.280967 0.283147 1.555557
endloop
endfacet
facet normal -1.000000 0.000000 0.000000
outer loop
vertex 5.500000 0.292388 1.538268
vertex 5.500000 0.298079 1.519509
vertex 5.500000 0.300000 1.500000
endloop
endfacet
facet normal -1.000000 0.000000 0.000000
outer loop
vertex 5.500000 0.300000 1.500000
vertex 5.500000 0.298079 1.480491
vertex 5.500000 0.292388 1.461732
endloop
endfacet
facet normal -1.000000 0.000000 0.000000
outer loop
vertex 5.500000 0.292388 1.461732
vertex 5.500000 0.283147 1.444443
vertex 5.500000 0.270711 1.429289
endloop
endfacet
facet normal -1.000000 0.000000 0.000000
outer loop
vertex 5.500000 0.270711 1.429289
vertex 5.500000 0.255557 1.416853
vertex 5.500000 0.238268 1.407612
endloop
endfacet
facet normal -1.000000 0.000000 0.000000
outer loop
vertex 5.500000 0.238268 1.407612
vertex 5.500000 0.219509 1.401922
vertex 5.500000 0.200000 1.400000
endloop
endfacet
facet normal -1.000000 0.000000 0.000000
outer loop
vertex 5.500000 0.200000 1.400000
vertex 5.500000 0.180491 1.401922
vertex 5.500000 0.161732 1.407612
endloop
endfacet
facet normal -1.000000 0.000000 0.000000
outer loop
vertex 5.500000 0.161732 1.407612
vertex 5.500000 0.144443 1.416853
vertex 5.500000 0.129289 1.429289
endloop
endfacet
facet normal -1.000000 0.000000 0.000000
outer loop
vertex 5.500000 0.129289 1.429289
vertex 5.500000 0.116853 1.444443
vertex 5.500000 0.107612 1.461732
endloop
endfacet
facet normal -1.000000 0.000000 0.000000
outer loop
vertex 5.500000 0.107612 1.461732
vertex 5.500000 0.101922 1.480491
vertex 5.500000 0.100000 1.500000
endloop
endfacet
facet normal -1.000000 0.000000 0.000000
outer loop
vertex 5.500000 0.100000 1.500000
vertex 5.500000 0.101922 1.519509
vertex 5.500000 0.107612 1.538268
endloop
endfacet
facet normal -1.000000 0.000000 0.000000
outer loop
vertex 5.500000 0.107612 1.538268
vertex 5.500000 0.116853 1.555557
vertex 5.500000 0.129289 1.570711
endloop
endfacet
facet normal -1.000000 0.000000 0.000000
outer loop
vertex 5.500000 0.129289 1.570711
vertex 5.500000 0.144443 1.583147
vertex 5.500000 0.161732 1.592388
endloop
endfacet
facet normal -1.000000 0.000000 0.000000
outer loop
vertex 5.500000 0.161732 1.592388
vertex 5.500000 0.180491 1.598078
vertex 5.500000 0.200000 1.600000
endloop
endfacet
facet normal -1.000000 0.000000 0.000000
outer loop
vertex 5.500000 0.200000 1.600000
vertex 5.500000 0.219509 1.598078
vertex 5.500000 0.238268 1.592388
endloop
endfacet
facet normal -1.000000 0.000000 0.000000
outer loop
vertex 5.500000 0.238268 1.592388
vertex 5.500000 0.255557 1.583147
vertex 5.500000 0.270711 1.570711
endloop
endfacet
facet normal -1.000000 0.000000 0.000000
outer loop
vertex 5.500000 0.270711 1.570711
vertex 5.500000 0.283147 1.555557
vertex 5.500000 0.292388 1.538268
endloop
endfacet
facet normal -1.000000 0.000000 0.000000
outer loop
vertex 5.500000 0.292388 1.538268
vertex 5.500000 0.300000 1.500000
vertex 5.500000 0.292388 1.461732
endloop
endfacet
facet normal -1.000000 0.000000 0.000000
outer loop
vertex 5.500000 0.292388 1.461732
vertex 5.500000 0.270711 1.429289
vertex 5.500000 0.238268 1.407612
endloop
endfacet
facet normal -1.000000 0.000000 0.000000
outer loop
vertex 5.500000 0.238268 1.407612
vertex 5.500000 0.200000 1.400000
vertex 5.500000 0.161732 1.407612
endloop
endfacet
facet normal -1.000000 0.000000 0.000000
outer loop
vertex 5.500000 0.161732 1.407612
vertex 5.500000 0.129289 1.429289
vertex 5.500000 0.107612 1.461732
endloop
endfacet
facet normal -1.000000 0.000000 0.000000
outer loop
vertex 5.500000 0.107612 1.461732
vertex 5.500000 0.100000 1.500000
vertex 5.500000 0.107612 1.538268
endloop
endfacet
facet normal -1.000000 0.000000 0.000000
outer loop
vertex 5.500000 0.107612 1.538268
vertex 5.500000 0.129289 1.570711
vertex 5.500000 0.161732 1.592388
endloop
endfacet
facet normal -1.000000 0.000000 0.000000
outer loop
vertex 5.500000 0.161732 1.592388
vertex 5.500000 0.200000 1.600000
vertex 5.500000 0.238268 1.592388
endloop
endfacet
facet normal -1.000000 0.000000 0.000000
outer loop
vertex 5.500000 0.238268 1.592388
vertex 5.500000 0.270711 1.570711
vertex 5.500000 0.292388 1.538268
endloop
endfacet
facet normal -1.000000 0.000000 0.000000
outer loop
vertex 5.500000 0.292388 1.538268
vertex 5.500000 0.292388 1.461732
vertex 5.500000 0.238268 1.407612
endloop
endfacet
facet normal -1.000000 0.000000 0.000000
outer loop
vertex 5.500000 0.238268 1.407612
vertex 5.500000 0.161732 1.407612
vertex 5.500000 0.107612 1.461732
endloop
endfacet
facet normal -1.000000 0.000000 0.000000
outer loop
vertex 5.500000 0.107612 1.461732
vertex 5.500000 0.107612 1.538268
vertex 5.500000 0.161732 1.592388
endloop
endfacet
facet normal -1.000000 0.000000 0.000000
outer loop
vertex 5.500000 0.161732 1.592388
vertex 5.500000 0.238268 1.592388
vertex 5.500000 0.292388 1.538268
endloop
endfacet
facet normal -1.000000 0.000000 0.000000
outer loop
vertex 5.500000 0.292388 1.538268
vertex 5.500000 0.238268 1.407612
vertex 5.500000 0.107612 1.461732
endloop
endfacet
facet normal -1.000000 0.000000 0.000000
outer loop
vertex 5.500000 0.107612 1.461732
vertex 5.500000 0.161732 1.592388
vertex 5.500000 0.292388 1.538268
endloop
endfacet
facet normal 0.000000 -0.956940 -0.290285
outer loop
vertex 0.304065 0.298079 1.519509
vertex 5.500000 0.298079 1.519509
vertex 5.500000 0.292388 1.538268
endloop
endfacet
facet normal 0.000000 -0.956942 -0.290280
outer loop
vertex 0.304065 0.298079 1.519509
vertex 5.500000 0.292388 1.538268
vertex 0.295262 0.292388 1.538268
endloop
endfacet
facet normal 0.000000 -0.995185 -0.098015
outer loop
vertex 0.307037 0.300000 1.500000
vertex 5.500000 0.300000 1.500000
vertex 5.500000 0.298079 1.519509
endloop
endfacet
facet normal 0.000000 -0.995185 -0.098015
outer loop
vertex 0.307037 0.300000 1.500000
vertex 5.500000 0.298079 1.519509
vertex 0.304065 0.298079 1.519509
endloop
endfacet
facet normal -0.845025 0.534727 0.000000
outer loop
vertex 0.058620 0.111664 1.454152
vertex 0.058620 0.111664 0.000000
vertex 0.045332 0.090664 0.000000
endloop
endfacet
facet normal -0.845025 0.534727 0.000000
outer loop
vertex 0.045332 0.090664 3.000000
vertex 0.058620 0.111664 3.000000
vertex 0.058620 0.111664 1.545848
endloop
endfacet
facet normal -0.845026 0.534725 -0.000000
outer loop
vertex 0.045332 0.090664 3.000000
vertex 0.058620 0.111664 1.545848
vertex 0.056057 0.107612 1.538268
endloop
endfacet
facet normal -0.845026 0.534725 0.000000
outer loop
vertex 0.056057 0.107612 1.461732
vertex 0.058620 0.111664 1.454152
vertex 0.045332 0.090664 0.000000
endloop
endfacet
facet normal -0.845018 0.534738 -0.000000
outer loop
vertex 0.052456 0.101922 1.480491
vertex 0.056057 0.107612 1.461732
vertex 0.045332 0.090664 0.000000
endloop
endfacet
facet normal -0.845017 0.534739 0.000000
outer loop
vertex 0.045332 0.090664 3.000000
vertex 0.056057 0.107612 1.538268
vertex 0.052456 0.101922 1.519509
endloop
endfacet
facet normal -0.845026 0.534725 -0.000000
outer loop
vertex 0.051240 0.100000 1.500000
vertex 0.052456 0.101922 1.480491
vertex 0.045332 0.090664 0.000000
endloop
endfacet
facet normal -0.845026 0.534725 0.000000
outer loop
vertex 0.045332 0.090664 3.000000
vertex 0.052456 0.101922 1.519509
vertex 0.051240 0.100000 1.500000
endloop
endfacet
facet normal -0.845028 0.534723 0.000000
outer loop
vertex 0.045332 0.090664 0.000000
vertex 0.045332 0.090664 3.000000
vertex 0.051240 0.100000 1.500000
endloop
endfacet
facet normal -0.583228 0.812308 0.000000
outer loop
vertex 0.153028 0.200000 1.400000
vertex 0.159191 0.204425 1.400436
vertex 0.159191 0.204425 0.000000
endloop
endfacet
facet normal -0.583234 0.812304 0.000000
outer loop
vertex 0.159191 0.204425 0.000000
vertex 0.131722 0.184703 0.000000
vertex 0.131722 0.184703 1.401507
endloop
endfacet
facet normal -0.583236 0.812303 -0.000000
outer loop
vertex 0.159191 0.204425 0.000000
vertex 0.131722 0.184703 1.401507
vertex 0.153028 0.200000 1.400000
endloop
endfacet
facet normal -0.583233 0.812305 0.000000
outer loop
vertex 0.153028 0.200000 1.600000
vertex 0.131722 0.184703 1.598493
vertex 0.131722 0.184703 3.000000
endloop
endfacet
facet normal -0.583234 0.812304 0.000000
outer loop
vertex 0.131722 0.184703 3.000000
vertex 0.159191 0.204425 3.000000
vertex 0.159191 0.204425 1.599564
endloop
endfacet
facet normal -0.583238 0.812301 -0.000000
outer loop
vertex 0.131722 0.184703 3.000000
vertex 0.159191 0.204425 1.599564
vertex 0.153028 0.200000 1.600000
endloop
endfacet
facet normal -0.648748 0.761004 0.000000
outer loop
vertex 0.131722 0.184703 1.401507
vertex 0.131722 0.184703 0.000000
vertex 0.104038 0.161103 0.000000
endloop
endfacet
facet normal -0.648758 0.760995 0.000000
outer loop
vertex 0.104038 0.161103 0.000000
vertex 0.104038 0.161103 1.407948
vertex 0.104776 0.161732 1.407612
endloop
endfacet
facet normal -0.648753 0.760999 0.000000
outer loop
vertex 0.126782 0.180491 1.401922
vertex 0.131722 0.184703 1.401507
vertex 0.104038 0.161103 0.000000
endloop
endfacet
facet normal -0.648747 0.761005 0.000000
outer loop
vertex 0.104038 0.161103 0.000000
vertex 0.104776 0.161732 1.407612
vertex 0.126782 0.180491 1.401922
endloop
endfacet
facet normal -0.648748 0.761003 0.000000
outer loop
vertex 0.104038 0.161103 1.592052
vertex 0.104038 0.161103 3.000000
vertex 0.131722 0.184703 3.000000
endloop
endfacet
facet normal -0.648741 0.761009 0.000000
outer loop
vertex 0.131722 0.184703 3.000000
vertex 0.131722 0.184703 1.598493
vertex 0.126782 0.180491 1.598078
endloop
endfacet
facet normal -0.648753 0.760999 0.000001
outer loop
vertex 0.104776 0.161732 1.592388
vertex 0.104038 0.161103 1.592052
vertex 0.131722 0.184703 3.000000
endloop
endfacet
facet normal -0.648749 0.761002 0.000000
outer loop
vertex 0.131722 0.184703 3.000000
vertex 0.126782 0.180491 1.598078
vertex 0.104776 0.161732 1.592388
endloop
endfacet
facet normal -0.706802 0.707412 0.000000
outer loop
vertex 0.104038 0.161103 1.407948
vertex 0.104038 0.161103 0.000000
vertex 0.078849 0.135935 0.000000
endloop
endfacet
facet normal -0.706805 0.707409 0.000000
outer loop
vertex 0.078849 0.135935 0.000000
vertex 0.078849 0.135935 1.423835
vertex 0.087364 0.144443 1.416853
endloop
endfacet
facet normal -0.706801 0.707412 -0.000000
outer loop
vertex 0.078849 0.135935 0.000000
vertex 0.087364 0.144443 1.416853
vertex 0.104038 0.161103 1.407948
endloop
endfacet
facet normal -0.706802 0.707411 0.000000
outer loop
vertex 0.078849 0.135935 1.576165
vertex 0.078849 0.135935 3.000000
vertex 0.104038 0.161103 3.000000
endloop
endfacet
facet normal -0.706800 0.707413 0.000000
outer loop
vertex 0.104038 0.161103 3.000000
vertex 0.104038 0.161103 1.592052
vertex 0.087364 0.144443 1.583147
endloop
endfacet
facet normal -0.706805 0.707408 0.000000
outer loop
vertex 0.104038 0.161103 3.000000
vertex 0.087364 0.144443 1.583147
vertex 0.078849 0.135935 1.576165
endloop
endfacet
facet normal -0.768182 0.640232 0.000000
outer loop
vertex 0.078849 0.135935 1.423835
vertex 0.078849 0.135935 0.000000
vertex 0.058620 0.111664 0.000000
endloop
endfacet
facet normal -0.768175 0.640240 0.000000
outer loop
vertex 0.058620 0.111664 0.000000
vertex 0.058620 0.111664 1.454152
vertex 0.062946 0.116853 1.444443
endloop
endfacet
facet normal -0.768177 0.640237 -0.000000
outer loop
vertex 0.073310 0.129289 1.429289
vertex 0.078849 0.135935 1.423835
vertex 0.058620 0.111664 0.000000
endloop
endfacet
facet normal -0.768187 0.640225 0.000000
outer loop
vertex 0.058620 0.111664 0.000000
vertex 0.062946 0.116853 1.444443
vertex 0.073310 0.129289 1.429289
endloop
endfacet
facet normal -0.768182 0.640232 0.000000
outer loop
vertex 0.058620 0.111664 1.545848
vertex 0.058620 0.111664 3.000000
vertex 0.078849 0.135935 3.000000
endloop
endfacet
facet normal -0.768191 0.640221 0.000000
outer loop
vertex 0.078849 0.135935 3.000000
vertex 0.078849 0.135935 1.576165
vertex 0.073311 0.129289 1.570711
endloop
endfacet
facet normal -0.768182 0.640232 0.000000
outer loop
vertex 0.062946 0.116853 1.555557
vertex 0.058620 0.111664 1.545848
vertex 0.078849 0.135935 3.000000
endloop
endfacet
facet normal -0.768177 0.640237 -0.000000
outer loop
vertex 0.078849 0.135935 3.000000
vertex 0.073311 0.129289 1.570711
vertex 0.062946 0.116853 1.555557
endloop
endfacet
facet normal -0.542890 0.839804 0.000000
outer loop
vertex 0.159191 0.204425 1.599564
vertex 0.159191 0.204425 3.000000
vertex 3.218793 2.182300 3.000000
endloop
endfacet
facet normal -0.542890 0.839804 0.000000
outer loop
vertex 3.218793 2.182300 3.000000
vertex 3.218793 2.182300 0.000000
vertex 0.159191 0.204425 0.000000
endloop
endfacet
facet normal -0.542891 0.839803 0.000000
outer loop
vertex 0.159191 0.204425 0.000000
vertex 0.159191 0.204425 1.400436
vertex 0.182524 0.219509 1.401922
endloop
endfacet
facet normal -0.542889 0.839805 -0.000000
outer loop
vertex 0.159191 0.204425 0.000000
vertex 0.182524 0.219509 1.401922
vertex 0.211543 0.238268 1.407612
endloop
endfacet
facet normal -0.542877 0.839812 -0.000011
outer loop
vertex 0.182524 0.219509 1.598078
vertex 0.159191 0.204425 1.599564
vertex 3.218793 2.182300 3.000000
endloop
endfacet
facet normal -0.542894 0.839801 0.000007
outer loop
vertex 0.211544 0.238268 1.592388
vertex 0.182524 0.219509 1.598078
vertex 3.218793 2.182300 3.000000
endloop
endfacet
facet normal -0.542892 0.839803 0.000000
outer loop
vertex 0.159191 0.204425 0.000000
vertex 0.211543 0.238268 1.407612
vertex 0.238287 0.255557 1.416853
endloop
endfacet
facet normal -0.542889 0.839805 -0.000000
outer loop
vertex 0.159191 0.204425 0.000000
vertex 0.238287 0.255557 1.416853
vertex 0.261729 0.270711 1.429289
endloop
endfacet
facet normal -0.542892 0.839803 0.000006
outer loop
vertex 0.238287 0.255557 1.583147
vertex 0.211544 0.238268 1.592388
vertex 3.218793 2.182300 3.000000
endloop
endfacet
facet normal -0.542887 0.839806 -0.000011
outer loop
vertex 0.261729 0.270711 1.570711
vertex 0.238287 0.255557 1.583147
vertex 3.218793 2.182300 3.000000
endloop
endfacet
facet normal -0.542890 0.839804 -0.000000
outer loop
vertex 3.218793 2.182300 3.000000
vertex 0.159191 0.204425 0.000000
vertex 0.261729 0.270711 1.429289
endloop
endfacet
facet normal -0.542837 0.839838 0.000017
outer loop
vertex 3.218793 2.182300 3.000000
vertex 0.261729 0.270711 1.429289
vertex 0.280967 0.283147 1.444443
endloop
endfacet
facet normal -0.542897 0.839799 0.000006
outer loop
vertex 0.280967 0.283147 1.555557
vertex 0.261729 0.270711 1.570711
vertex 3.218793 2.182300 3.000000
endloop
endfacet
facet normal -0.542881 0.839810 0.000000
outer loop
vertex 0.295262 0.292388 1.538268
vertex 0.280967 0.283147 1.555557
vertex 3.218793 2.182300 3.000000
endloop
endfacet
facet normal -0.542918 0.839786 0.000005
outer loop
vertex 3.218793 2.182300 3.000000
vertex 0.280967 0.283147 1.444443
vertex 0.295262 0.292388 1.461732
endloop
endfacet
facet normal -0.542875 0.839814 -0.000006
outer loop
vertex 3.218793 2.182300 3.000000
vertex 0.295262 0.292388 1.461732
vertex 0.304065 0.298079 1.480491
endloop
endfacet
facet normal -0.542889 0.839805 0.000006
outer loop
vertex 0.304065 0.298079 1.519509
vertex 0.295262 0.292388 1.538268
vertex 3.218793 2.182300 3.000000
endloop
endfacet
facet normal -0.542908 0.839792 0.000007
outer loop
vertex 3.218793 2.182300 3.000000
vertex 0.304065 0.298079 1.480491
vertex 0.307037 0.300000 1.500000
endloop
endfacet
facet normal -0.542880 0.839810 -0.000006
outer loop
vertex 3.218793 2.182300 3.000000
vertex 0.307037 0.300000 1.500000
vertex 0.304065 0.298079 1.519509
endloop
endfacet
endsolid clamp_porous
